Coordinates
version=1
nRows=17
nColumns=24
inDegrees=yes

Units are S.I. units (second, meters, Newtons, ...)
Angles are in degrees.

endheader
time	pelvis_tilt	pelvis_list	pelvis_rotation	pelvis_tx	pelvis_ty	pelvis_tz	hip_flexion_r	hip_adduction_r	hip_rotation_r	knee_angle_r	ankle_angle_r	subtalar_angle_r	mtp_angle_r	hip_flexion_l	hip_adduction_l	hip_rotation_l	knee_angle_l	ankle_angle_l	subtalar_angle_l	mtp_angle_l	lumbar_extension	lumbar_bending	lumbar_rotation
      1.00000000	      4.90920518	     -0.01715821	      0.31678438	      0.59297722	      1.04451715	      0.04547678	     -2.71942949	      1.86515668	     -3.73475335	    -11.71052855	      8.03024317	     -0.00000117	      0.00000000	     18.72599339	     -3.05506353	     -4.16113757	    -57.79841911	      1.43254351	     -0.00000134	      0.00000000	    -16.36233267	      1.03184988	      1.14392274
      1.01700000	      4.96274765	     -0.03977934	      0.06868073	      0.59107956	      1.04444472	      0.04656513	     -4.19958414	      1.98319832	     -3.53404498	    -10.94165676	      8.41971456	     -0.00000112	      0.00000000	     19.41621112	     -3.07124340	     -4.57134618	    -53.54111445	      1.69150046	     -0.00000250	      0.00000000	    -16.49710532	      0.89905142	      1.49628121
      1.03300000	      4.98226371	     -0.25153231	     -0.11423914	      0.58911296	      1.04392157	      0.04775395	     -5.72588925	      2.31189248	     -3.41754342	    -10.00943191	      8.71829913	     -0.00000127	      0.00000000	     19.93583789	     -3.44462589	     -5.31009321	    -48.78396229	      1.64568522	     -0.00000369	      0.00000000	    -16.64150134	      1.00273674	      1.82316325
      1.05000000	      5.13611694	     -0.59832984	     -0.24010881	      0.58717411	      1.04325148	      0.04846968	     -7.37118559	      2.74817702	     -3.31609702	     -9.15037489	      9.01636267	     -0.00000123	      0.00000000	     20.07182382	     -3.96647230	     -6.30546683	    -43.53031456	      1.30424173	     -0.00000493	      0.00000000	    -16.97240215	      1.24439091	      1.95971368
      1.06700000	      5.01424326	     -1.18631612	     -0.52971982	      0.58507287	      1.04155534	      0.04932852	     -8.63149057	      3.39727063	     -2.98813975	     -8.45574845	      9.34721673	     -0.00000124	      0.00000000	     20.34113133	     -4.75078995	     -7.57311034	    -38.03230581	      0.77346316	     -0.00000590	      0.00000000	    -16.83582525	      1.77058598	      2.44276767
      1.08300000	      4.92870784	     -1.58373666	     -0.78058937	      0.58337483	      1.03963700	      0.04960657	     -9.99948150	      3.78814922	     -2.54388177	     -7.71183509	      9.72044521	     -0.00000124	      0.00000000	     20.29155983	     -5.15730925	     -8.90388715	    -32.12656157	      0.00698667	     -0.00000647	      0.00000000	    -16.89300992	      1.97998037	      2.62698827
      1.10000000	      4.77589384	     -2.14015670	     -1.04043825	      0.58208725	      1.03720774	      0.05009363	    -11.38468693	      4.34035902	     -2.07632672	     -6.87377062	     10.00909610	     -0.00000107	      0.00000000	     20.28340362	     -5.58224332	     -9.90301036	    -26.36892402	     -0.68864544	     -0.00000614	      0.00000000	    -16.75033135	      2.43961919	      3.01425228
      1.11700000	      4.57362356	     -2.61281456	     -1.29101875	      0.58080504	      1.03440845	      0.05031402	    -12.58774925	      4.77633318	     -1.48800817	     -6.34672421	     10.46641170	     -0.00000099	      0.00000000	     20.19360772	     -5.71388195	    -10.30277372	    -20.56616418	     -1.28370589	     -0.00000543	      0.00000000	    -16.63178336	      2.80809543	      3.09352695
      1.13300000	      4.42748698	     -3.16781918	     -1.77621373	      0.57923794	      1.03134302	      0.05028864	    -13.71814891	      5.18772458	     -0.63167821	     -6.08577278	     11.01269606	     -0.00000101	      0.00000000	     20.04415635	     -5.90127670	    -10.13208789	    -15.16194374	     -1.58277371	     -0.00000425	      0.00000000	    -16.61067739	      3.14114528	      3.58710213
      1.15000000	      4.49027638	     -3.66726558	     -2.01115104	      0.57843280	      1.02843908	      0.04980084	    -15.13718509	      5.55475428	     -0.00864113	     -5.76294321	     11.49393163	     -0.00000089	      0.00000000	     19.51096767	     -5.92600756	     -9.10735071	     -9.98098749	     -1.68582418	     -0.00000321	      0.00000000	    -16.72675645	      3.56826183	      3.92287991
      1.16700000	      4.44647204	     -4.00611598	     -2.35574742	      0.57804782	      1.02514641	      0.04962544	    -16.50379824	      5.72290260	      0.54793691	     -5.38198739	     11.94626172	     -0.00000082	      0.00000000	     19.15459416	     -5.93843659	     -7.88763383	     -5.75938501	     -1.47350690	     -0.00000220	      0.00000000	    -16.82718354	      3.59855660	      3.87368024
      1.18300000	      4.56206148	     -4.34783087	     -2.89935818	      0.57749721	      1.02226040	      0.04922058	    -17.78415804	      5.75834522	      1.24363517	     -5.50590786	     12.47613871	     -0.00000071	      0.00000000	     18.70575851	     -6.08546931	     -6.86960752	     -2.65756420	     -1.07176051	     -0.00000141	      0.00000000	    -16.94401063	      3.71553045	      4.50986051
      1.20000000	      4.45422994	     -4.45920800	     -3.17689510	      0.57779172	      1.01922761	      0.04872942	    -18.89993128	      5.64575135	      1.60143702	     -5.51947685	     12.85681048	     -0.00000055	      0.00000000	     18.62907110	     -5.99962311	     -5.88978899	     -0.79105372	     -0.70888921	     -0.00000088	      0.00000000	    -16.83593342	      3.49553344	      4.23322819
      1.21700000	      4.56775154	     -4.57196722	     -3.41236410	      0.57734857	      1.01697258	      0.04793495	    -19.82034139	      5.50844704	      1.95392953	     -6.29238439	     13.34637357	     -0.00000019	      0.00000000	     18.72676068	     -5.95035272	     -5.05895077	     -0.68796166	     -0.36921687	     -0.00000077	      0.00000000	    -17.04958792	      3.25980483	      4.32994119
      1.23300000	      4.66386731	     -4.47847546	     -3.74856821	      0.57767951	      1.01513476	      0.04690565	    -20.60712608	      5.09929476	      2.39747676	     -7.30300141	     13.77690174	      0.00000011	      0.00000000	     18.85179517	     -5.71727800	     -4.57801695	     -1.66175899	     -0.37357414	     -0.00000089	      0.00000000	    -17.09734961	      2.76127987	      4.24422755
      1.25000000	      4.59941517	     -4.29876568	     -4.34992050	      0.57915421	      1.01369749	      0.04527331	    -21.08192271	      4.46266679	      3.04442528	     -8.68337392	     14.07608230	      0.00000047	      0.00000000	     19.12174584	     -5.44897482	     -4.48821425	     -3.53882884	     -0.74291829	     -0.00000114	      0.00000000	    -16.85779807	      2.27393687	      4.49265359
      1.26700000	      4.45513752	     -4.03202947	     -4.39826301	      0.58128694	      1.01234598	      0.04339859	    -21.26469637	      3.98001004	      3.15998547	    -10.49416201	     14.30019022	      0.00000089	      0.00000000	     19.67991998	     -4.97342642	     -4.01374887	     -6.12023278	     -1.50891022	     -0.00000145	      0.00000000	    -16.39343213	      1.72084289	      4.30781877
